# xmcd
#
# Track frame offsets:
#       150
#       14293
#       33505
#       53923
#       68930
#       83888
#       93895
#       122576
#       133937
#       142604
#       173716
#       193438
#
# Disc length: 2910 seconds
#
# Revision: 2
# Processed by: cddbd v1.4PL0 Copyright (c) Steve Scherf et al.
# Submitted via: CD-DA_X-Tractor v0.23
#
DISCID=a20b5c0c
DTITLE=Johnny La Rosa - Call me Johnny
DYEAR=2002
DGENRE=
TTITLE0=Red River
TTITLE1=Do the do - Soul Power
TTITLE2=I wanna be black
TTITLE3=My jolie
TTITLE4=Chicken from outer space
TTITLE5=Rock'n'Roll virus
TTITLE6=Skin
TTITLE7=Call me Johnny
TTITLE8=Restless Chile
TTITLE9=Hot Club - Viva Berry!
TTITLE10=Naked in the jungle
TTITLE11=Goin' fishin'
EXTD=
EXTT0=
EXTT1=
EXTT2=
EXTT3=
EXTT4=
EXTT5=
EXTT6=
EXTT7=
EXTT8=
EXTT9=
EXTT10=
EXTT11=
PLAYORDER=
